<svg width="93" height="21" viewBox="0 0 93 21" fill="none" xmlns="http://www.w3.org/2000/svg">
<rect width="93" height="21" fill="#E5675D"/>
<path d="M8.83758 14V6.7H10.4776V14H8.83758ZM10.2776 14V12.56H13.3376V14H10.2776ZM13.7823 14L16.1923 6.7H18.8423L21.3423 14H19.6423L17.6223 7.83L18.1423 8.04H16.8523L17.3923 7.83L15.4223 14H13.7823ZM15.6123 12.19L16.1123 10.83H18.9723L19.4823 12.19H15.6123ZM22.2946 14V6.7H24.9846L27.7346 12.67H28.0746L27.8746 12.85V6.7H29.4146V14H26.7046L23.9546 8.03H23.6146L23.8146 7.85V14H22.2946ZM34.4044 14.19C33.7444 14.19 33.1777 14.0767 32.7044 13.85C32.231 13.6167 31.8444 13.3133 31.5444 12.94C31.2444 12.56 31.021 12.1533 30.8744 11.72C30.7344 11.28 30.6644 10.8533 30.6644 10.44V10.22C30.6644 9.76667 30.7377 9.32 30.8844 8.88C31.031 8.43333 31.2544 8.03 31.5544 7.67C31.861 7.31 32.2444 7.02333 32.7044 6.81C33.171 6.59 33.721 6.48 34.3544 6.48C35.0144 6.48 35.5977 6.60333 36.1044 6.85C36.611 7.09667 37.0144 7.44 37.3144 7.88C37.621 8.31333 37.801 8.82333 37.8544 9.41H36.2044C36.1577 9.11667 36.051 8.86667 35.8844 8.66C35.7177 8.45333 35.501 8.29333 35.2344 8.18C34.9744 8.06667 34.681 8.01 34.3544 8.01C34.0277 8.01 33.7377 8.06667 33.4844 8.18C33.231 8.29333 33.0177 8.45333 32.8444 8.66C32.6777 8.86667 32.5477 9.11333 32.4544 9.4C32.3677 9.68 32.3244 9.99333 32.3244 10.34C32.3244 10.68 32.3677 10.9933 32.4544 11.28C32.5477 11.56 32.681 11.8067 32.8544 12.02C33.0344 12.2267 33.2544 12.3867 33.5144 12.5C33.7744 12.6067 34.071 12.66 34.4044 12.66C34.911 12.66 35.3377 12.5367 35.6844 12.29C36.0377 12.0433 36.251 11.7033 36.3244 11.27H37.9644C37.9044 11.8033 37.7244 12.2933 37.4244 12.74C37.131 13.18 36.7277 13.5333 36.2144 13.8C35.7077 14.06 35.1044 14.19 34.4044 14.19ZM34.3544 16.76C34.1877 16.76 34.0244 16.7467 33.8644 16.72C33.711 16.7 33.5877 16.6733 33.4944 16.64V15.62C33.5944 15.6467 33.711 15.6733 33.8444 15.7C33.9844 15.7267 34.131 15.74 34.2844 15.74C34.4844 15.74 34.6344 15.7167 34.7344 15.67C34.8344 15.6233 34.8844 15.5533 34.8844 15.46C34.8844 15.3867 34.8477 15.33 34.7744 15.29C34.701 15.25 34.5844 15.23 34.4244 15.23H33.8944V13.87H34.9244V14.86L34.3044 14.43H34.4444C34.911 14.43 35.2777 14.5167 35.5444 14.69C35.8177 14.87 35.9544 15.1367 35.9544 15.49C35.9544 15.8433 35.8144 16.1433 35.5344 16.39C35.261 16.6367 34.8677 16.76 34.3544 16.76ZM38.2843 14L40.6943 6.7H43.3443L45.8443 14H44.1443L42.1243 7.83L42.6443 8.04H41.3543L41.8943 7.83L39.9243 14H38.2843ZM40.1143 12.19L40.6143 10.83H43.4743L43.9843 12.19H40.1143ZM46.7966 14V6.7H49.0566L50.7266 10.8H50.9166L52.5666 6.7H54.8666V14H53.2466V7.77L53.4766 7.79L51.5466 12.52H49.9866L48.0466 7.79L48.2966 7.77V14H46.7966ZM56.5036 14V6.7H58.1036V14H56.5036ZM57.9036 14V12.64H61.0936V14H57.9036ZM57.9036 10.97V9.61H60.8636V10.97H57.9036ZM57.9036 8.06V6.7H61.0236V8.06H57.9036ZM62.4411 14V6.7H65.1311L67.8811 12.67H68.2211L68.0211 12.85V6.7H69.5611V14H66.8511L64.1011 8.03H63.7611L63.9611 7.85V14H62.4411ZM72.6509 14V7.93H74.2909V14H72.6509ZM70.6009 8.13V6.7H76.3509V8.13H70.6009ZM80.6774 14.19C80.0174 14.19 79.4408 14.0767 78.9474 13.85C78.4608 13.6167 78.0574 13.3133 77.7374 12.94C77.4174 12.56 77.1774 12.15 77.0174 11.71C76.8641 11.27 76.7874 10.8467 76.7874 10.44V10.22C76.7874 9.76667 76.8674 9.32 77.0274 8.88C77.1941 8.43333 77.4408 8.03 77.7674 7.67C78.0941 7.31 78.5008 7.02333 78.9874 6.81C79.4741 6.59 80.0374 6.48 80.6774 6.48C81.3174 6.48 81.8808 6.59 82.3674 6.81C82.8541 7.02333 83.2608 7.31 83.5874 7.67C83.9141 8.03 84.1608 8.43333 84.3274 8.88C84.4941 9.32 84.5774 9.76667 84.5774 10.22V10.44C84.5774 10.8467 84.4974 11.27 84.3374 11.71C84.1774 12.15 83.9374 12.56 83.6174 12.94C83.2974 13.3133 82.8908 13.6167 82.3974 13.85C81.9108 14.0767 81.3374 14.19 80.6774 14.19ZM80.6774 12.66C81.0241 12.66 81.3341 12.6 81.6074 12.48C81.8874 12.36 82.1241 12.1933 82.3174 11.98C82.5174 11.7667 82.6674 11.52 82.7674 11.24C82.8674 10.96 82.9174 10.66 82.9174 10.34C82.9174 10 82.8641 9.69 82.7574 9.41C82.6574 9.12333 82.5074 8.87667 82.3074 8.67C82.1141 8.45667 81.8808 8.29333 81.6074 8.18C81.3341 8.06667 81.0241 8.01 80.6774 8.01C80.3308 8.01 80.0208 8.06667 79.7474 8.18C79.4741 8.29333 79.2374 8.45667 79.0374 8.67C78.8441 8.87667 78.6974 9.12333 78.5974 9.41C78.4974 9.69 78.4474 10 78.4474 10.34C78.4474 10.66 78.4974 10.96 78.5974 11.24C78.6974 11.52 78.8441 11.7667 79.0374 11.98C79.2374 12.1933 79.4741 12.36 79.7474 12.48C80.0208 12.6 80.3308 12.66 80.6774 12.66Z" fill="white"/>
</svg>
