<svg width="57" height="21" viewBox="0 0 57 21" fill="none" xmlns="http://www.w3.org/2000/svg">
<rect width="57" height="21" fill="#4DA1B1"/>
<path d="M10.0862 14V7.78L10.5262 8.12H8.65617V6.7H11.7162V14H10.0862ZM16.4235 14.19C15.8435 14.19 15.3468 14.0967 14.9335 13.91C14.5202 13.7167 14.1835 13.4567 13.9235 13.13C13.6702 12.8033 13.4802 12.4267 13.3535 12C13.2335 11.5667 13.1735 11.11 13.1735 10.63V10.06C13.1735 9.39333 13.2902 8.79 13.5235 8.25C13.7568 7.71 14.1135 7.28 14.5935 6.96C15.0735 6.64 15.6835 6.48 16.4235 6.48C17.1635 6.48 17.7702 6.64 18.2435 6.96C18.7235 7.28 19.0802 7.71 19.3135 8.25C19.5468 8.79 19.6635 9.39333 19.6635 10.06V10.63C19.6635 11.11 19.6002 11.5667 19.4735 12C19.3535 12.4267 19.1635 12.8033 18.9035 13.13C18.6502 13.4567 18.3168 13.7167 17.9035 13.91C17.4968 14.0967 17.0035 14.19 16.4235 14.19ZM16.4235 12.68C16.9635 12.68 17.3635 12.4933 17.6235 12.12C17.8902 11.74 18.0235 11.1533 18.0235 10.36C18.0235 9.52 17.8868 8.91667 17.6135 8.55C17.3468 8.17667 16.9502 7.99 16.4235 7.99C15.8835 7.99 15.4802 8.17667 15.2135 8.55C14.9468 8.91667 14.8135 9.51333 14.8135 10.34C14.8135 11.14 14.9435 11.73 15.2035 12.11C15.4702 12.49 15.8768 12.68 16.4235 12.68ZM22.7005 14L25.3605 6.7H26.7005L24.0505 14H22.7005ZM22.2005 10.71C21.8071 10.71 21.4771 10.6233 21.2105 10.45C20.9505 10.27 20.7538 10.0333 20.6205 9.74C20.4938 9.44 20.4305 9.11 20.4305 8.75V8.49C20.4305 8.11 20.4971 7.77333 20.6305 7.48C20.7638 7.18667 20.9638 6.95667 21.2305 6.79C21.4971 6.62333 21.8205 6.54 22.2005 6.54C22.5871 6.54 22.9105 6.62333 23.1705 6.79C23.4371 6.95667 23.6371 7.18667 23.7705 7.48C23.9038 7.77333 23.9705 8.11 23.9705 8.49V8.75C23.9705 9.11 23.9038 9.44 23.7705 9.74C23.6438 10.0333 23.4505 10.27 23.1905 10.45C22.9305 10.6233 22.6005 10.71 22.2005 10.71ZM22.2005 9.64C22.4071 9.64 22.5571 9.56667 22.6505 9.42C22.7505 9.26667 22.8005 9.00333 22.8005 8.63C22.8005 8.23667 22.7505 7.96667 22.6505 7.82C22.5505 7.67333 22.4005 7.6 22.2005 7.6C22.0005 7.6 21.8505 7.67333 21.7505 7.82C21.6505 7.96667 21.6005 8.23333 21.6005 8.62C21.6005 8.99333 21.6505 9.25667 21.7505 9.41C21.8505 9.56333 22.0005 9.64 22.2005 9.64ZM27.1705 14.17C26.7705 14.17 26.4405 14.0833 26.1805 13.91C25.9205 13.7367 25.7238 13.5033 25.5905 13.21C25.4638 12.91 25.4005 12.58 25.4005 12.22V11.96C25.4005 11.5733 25.4671 11.2333 25.6005 10.94C25.7338 10.6467 25.9305 10.4167 26.1905 10.25C26.4571 10.0833 26.7838 10 27.1705 10C27.5571 10 27.8805 10.0833 28.1405 10.25C28.4005 10.4167 28.5971 10.6467 28.7305 10.94C28.8638 11.2333 28.9305 11.5733 28.9305 11.96V12.22C28.9305 12.58 28.8638 12.91 28.7305 13.21C28.6038 13.5033 28.4105 13.7367 28.1505 13.91C27.8971 14.0833 27.5705 14.17 27.1705 14.17ZM27.1705 13.11C27.3771 13.11 27.5271 13.0367 27.6205 12.89C27.7205 12.7367 27.7705 12.4733 27.7705 12.1C27.7705 11.7 27.7205 11.43 27.6205 11.29C27.5205 11.1433 27.3705 11.07 27.1705 11.07C26.9705 11.07 26.8171 11.1433 26.7105 11.29C26.6105 11.43 26.5605 11.6967 26.5605 12.09C26.5605 12.4633 26.6105 12.7267 26.7105 12.88C26.8105 13.0333 26.9638 13.11 27.1705 13.11ZM33.4767 14.17C32.8434 14.17 32.2934 14.0567 31.8267 13.83C31.3601 13.6033 30.9734 13.3033 30.6667 12.93C30.3601 12.5567 30.1301 12.15 29.9767 11.71C29.8234 11.27 29.7467 10.84 29.7467 10.42V10.24C29.7467 9.79333 29.8234 9.35 29.9767 8.91C30.1367 8.46333 30.3734 8.06 30.6867 7.7C31.0001 7.34 31.3901 7.05333 31.8567 6.84C32.3234 6.62 32.8634 6.51 33.4767 6.51C34.0967 6.51 34.6367 6.62 35.0967 6.84C35.5634 7.05333 35.9534 7.34 36.2667 7.7C36.5801 8.06 36.8134 8.46333 36.9667 8.91C37.1267 9.35 37.2067 9.79333 37.2067 10.24V10.43C37.2067 10.85 37.1301 11.28 36.9767 11.72C36.8301 12.1533 36.6001 12.5567 36.2867 12.93C35.9801 13.3033 35.5934 13.6033 35.1267 13.83C34.6601 14.0567 34.1101 14.17 33.4767 14.17ZM33.4767 13.47C33.9434 13.47 34.3601 13.3867 34.7267 13.22C35.0934 13.0467 35.4034 12.8133 35.6567 12.52C35.9101 12.22 36.1034 11.8833 36.2367 11.51C36.3701 11.1367 36.4367 10.7467 36.4367 10.34C36.4367 9.91333 36.3701 9.51333 36.2367 9.14C36.1034 8.76667 35.9067 8.43667 35.6467 8.15C35.3934 7.85667 35.0834 7.62667 34.7167 7.46C34.3501 7.29333 33.9367 7.21 33.4767 7.21C33.0234 7.21 32.6134 7.29333 32.2467 7.46C31.8801 7.62667 31.5667 7.85667 31.3067 8.15C31.0534 8.43667 30.8567 8.76667 30.7167 9.14C30.5834 9.51333 30.5167 9.91333 30.5167 10.34C30.5167 10.7467 30.5834 11.1367 30.7167 11.51C30.8501 11.8833 31.0434 12.22 31.2967 12.52C31.5501 12.8133 31.8601 13.0467 32.2267 13.22C32.6001 13.3867 33.0167 13.47 33.4767 13.47ZM38.9486 14V6.7H39.7086V14H38.9486ZM39.5086 10.63V9.94L42.7386 9.93V10.62L39.5086 10.63ZM39.5086 7.38V6.7H42.9286V7.38H39.5086ZM44.5443 14V6.7H45.3043V14H44.5443ZM45.1043 10.63V9.94L48.3343 9.93V10.62L45.1043 10.63ZM45.1043 7.38V6.7H48.5243V7.38H45.1043Z" fill="white"/>
</svg>
